<?xml version="1.0" encoding="UTF-8" standalone="no" ?>
<!DOCTYPE svg PUBLIC "-//W3C//DTD SVG 1.1//EN" "http://www.w3.org/Graphics/SVG/1.1/DTD/svg11.dtd">
<svg xmlns="http://www.w3.org/2000/svg" xmlns:xlink="http://www.w3.org/1999/xlink" version="1.1" width="1280" height="1024" viewBox="0 0 1280 1024" xml:space="preserve">
<desc>Created with Fabric.js 5.3.0</desc>
<defs>
</defs>
<g transform="matrix(1 0 0 1 640 512)" id="background-logo"  >
<rect style="stroke: none; stroke-width: 0; stroke-dasharray: none; stroke-linecap: butt; stroke-dashoffset: 0; stroke-linejoin: miter; stroke-miterlimit: 4; fill: rgb(255,255,255); fill-opacity: 0; fill-rule: nonzero; opacity: 1;"  paint-order="stroke"  x="-640" y="-512" rx="0" ry="0" width="1280" height="1024" />
</g>
<g transform="matrix(1.9211538461538462 0 0 1.9211538461538462 609.2615384615384 401.96057123596586)" id="logo-logo"  >
<g style=""  paint-order="stroke"   >
		<g transform="matrix(0.5976540308871362 0 0 0.5976540308871362 33.90654461098819 -7.886506594803961)"  >
<linearGradient id="SVGID_24_224356" gradientUnits="userSpaceOnUse" gradientTransform="matrix(1 0 0 1 0 0)"  x1="471.2636036" y1="367.9427277" x2="540.7864981" y2="367.9427277">
<stop offset="0.5618%" style="stop-color:rgb(234,191,124);stop-opacity: 1"/>
<stop offset="18.5393%" style="stop-color:rgb(236,207,136);stop-opacity: 1"/>
<stop offset="41.011199999999995%" style="stop-color:rgb(242,230,216);stop-opacity: 1"/>
<stop offset="73.0337%" style="stop-color:rgb(191,130,43);stop-opacity: 1"/>
<stop offset="94.9438%" style="stop-color:rgb(233,189,128);stop-opacity: 1"/>
</linearGradient>
<path style="stroke: none; stroke-width: 1; stroke-dasharray: none; stroke-linecap: butt; stroke-dashoffset: 0; stroke-linejoin: miter; stroke-miterlimit: 4; fill: url(#SVGID_24_224356); fill-rule: nonzero; opacity: 1;"  paint-order="stroke"  transform=" translate(-506.0250507777873, -367.94272775959314)" d="M 521.793211 367.8282971 C 524.3412648000001 384.77673139999996 530.0200499 403.4267668 531.5830522 420.3459699 C 532.1772645 426.7782046 532.9151863 431.851673 525.2301389 432.7492687 C 516.9196302 433.7199168 494.50071890000004 433.715303 486.18450930000006 432.7492634 C 483.5577089000001 432.44412520000003 481.08352840000003 431.59338130000003 479.90473870000005 429.0350209 C 480.93504680000007 408.6046928 485.99910600000004 388.3722321 489.33009490000006 368.1755471 C 467.3382268000001 354.941958 463.94048770000006 321.5574962 487.40787880000005 307.927008 C 528.6941008 283.9468663 563.8707085000001 344.49970940000003 521.793211 367.8282971 Z" stroke-linecap="round" />
</g>
		<g transform="matrix(0.5976540308871362 0 0 0.5976540308871362 0 0)"  >
<linearGradient id="SVGID_25_224357" gradientUnits="userSpaceOnUse" gradientTransform="matrix(1 0 0 1 0 0)"  x1="289.8360423" y1="381.1385001" x2="608.7485996" y2="381.1385001">
<stop offset="0.5618%" style="stop-color:rgb(234,191,124);stop-opacity: 1"/>
<stop offset="18.5393%" style="stop-color:rgb(236,207,136);stop-opacity: 1"/>
<stop offset="41.011199999999995%" style="stop-color:rgb(242,230,216);stop-opacity: 1"/>
<stop offset="73.0337%" style="stop-color:rgb(191,130,43);stop-opacity: 1"/>
<stop offset="94.9438%" style="stop-color:rgb(233,189,128);stop-opacity: 1"/>
</linearGradient>
<path style="stroke: none; stroke-width: 1; stroke-dasharray: none; stroke-linecap: butt; stroke-dashoffset: 0; stroke-linejoin: miter; stroke-miterlimit: 4; fill: url(#SVGID_25_224357); fill-rule: nonzero; opacity: 1;"  paint-order="stroke"  transform=" translate(-449.2923210400517, -381.1385002085759)" d="M 608.7439609 268.4012305 L 472.1304355000001 212.7317969 L 332.7073398000001 268.2264258 L 332.7073398000001 334.7264258 L 352.7073398000001 334.7264258 L 352.7073398000001 282.2264258 L 391.7073398000001 266.7264258 L 391.7073398000001 303.2264258 C 391.7073398000001 304.1190039 383.12115820000014 308.7972266 385.1460605000001 318.7767188 C 388.5674472000001 335.63755860000003 414.31232030000007 333.0110938 413.7534824000001 315.2601172 C 413.5254551000001 308.0179297 407.4065586000001 305.7523047 406.72980080000013 302.2039649 L 406.6624180000001 260.3865821 L 429.70733990000014 250.7264259 L 429.70733990000014 338.2264259 L 409.1851231000001 358.7044532 L 326.2295567000001 358.7044532 C 322.88531840000013 358.0672462 319.9487950000001 351.9695899 315.4382969000001 350.4949805 C 298.72369730000014 345.0311133 284.0029942000001 360.9095313 292.14654890000014 376.787461 C 298.93024030000015 390.01451180000004 319.58307230000014 388.1028907 325.71222270000015 375.2313087 L 416.68902930000013 374.2083595 L 444.6851231000001 345.20445329999995 L 444.8760411000001 244.89000019999997 C 452.1055333000001 243.14097679999998 466.1653477000001 233.65660179999998 472.9585606000001 234.94468769999997 L 588.5723301000002 281.86265649999996 L 588.6944004000002 394.2137306999999 C 581.3616367000002 458.23863299999994 525.9932285000002 501.87925799999994 472.04376560000014 528.5032815 C 468.64435150000014 526.9441995 456.2964511000001 522.4310158999999 455.70318940000016 519.2308205999999 L 455.50250580000016 429.4310158999999 L 424.20733980000017 397.7264260999999 L 335.70733980000017 397.7264260999999 L 338.71441990000017 413.7200783999999 L 417.18512300000015 413.7488869999999 L 440.70733980000017 436.2264260999999 L 440.70733980000017 511.7264260999999 L 426.2363925000002 500.79478549999993 L 418.6802402000002 495.7855081999999 L 418.6802402000002 467.2298440999999 C 418.5850254000002 466.5555276999999 418.5420566000002 465.8802346999999 418.5989414000002 465.2015237999999 C 418.61481050000015 465.0120706999999 418.64264260000016 464.8314065999999 418.6802402000002 464.6570901999999 C 419.22906830000016 462.1058206999999 421.9741855000002 461.0521096999999 423.50079680000016 458.0486917999999 C 426.29156830000016 452.5589456999999 426.6316562000002 448.1302347999999 423.15924410000014 442.7747659999999 C 413.53400000000016 427.93052769999986 389.27643160000014 441.8426370999999 398.8565097000001 458.0770120999999 C 400.7158847000001 461.2278909999999 403.25226170000013 461.19273479999987 403.6485019000001 464.33531289999985 L 403.6485019000001 482.7332620999998 C 403.3374667000001 482.64195349999983 403.0728183000001 482.4612893999998 402.6922031000001 482.2430276999998 C 400.7822910000001 481.1463479999998 392.2322422000001 472.0345315999998 390.1931797000001 469.7405862999998 C 379.3635899000001 457.5589456999998 371.2669102000001 443.3455667999998 364.2073399000001 428.7264260999998 L 343.7073399000001 428.7264260999998 C 359.5986973000001 475.0677346999998 400.4043614000001 511.2498635999998 442.0361973000001 534.8978127999998 C 446.3862950000001 537.3685158999998 469.0244785000001 549.7952736999998 471.9544102000001 549.5413674999998 C 475.1587559000001 549.2635354999998 487.9790684000001 542.2342385999998 491.7288243000001 540.2479104999998 C 548.6694981 510.08335969999973 604.9678380000001 458.98179719999973 608.7485997000001 390.26792999999975 L 608.7439610000001 268.4012307999998 Z M 310.709293 371.2303321 C 304.1868321 374.4822852 301.8101231 365.4022071 306.3775059 363.8592383 C 312.0198399 361.9534766 315.098209 369.0418555 310.709293 371.2303321 Z" stroke-linecap="round" />
</g>
</g>
</g>
<g transform="matrix(1.9211538461538462 0 0 1.9211538461538462 624.8709558167744 688.2079318294116)" id="text-logo"  >
<g style=""  paint-order="stroke"   >
		<g transform="matrix(1 0 0 1 0 0)" id="text-logo-path-0"  >
<path style="stroke: none; stroke-width: 0; stroke-dasharray: none; stroke-linecap: butt; stroke-dashoffset: 0; stroke-linejoin: miter; stroke-miterlimit: 4; fill: rgb(203,149,75); fill-rule: nonzero; opacity: 1;"  paint-order="stroke"  transform=" translate(-191.805, 20.455000000000002)" d="M 9.41 0 L 12.56 -8.18 L 30.92 -8.18 L 34.07 0 L 41.55 0 L 25.77 -40.91 L 17.71 -40.91 L 1.93 0 Z M 15.25 -15.19 L 21.74 -31.97 L 28.23 -15.19 Z M 56.86 0 L 56.86 -40.91 L 49.85 -40.91 L 49.85 0 Z M 72.18 0 L 72.18 -40.91 L 65.16 -40.91 L 65.16 0 Z M 100.34 0 L 100.34 -33.9 L 113.2 -33.9 L 113.2 -40.91 L 80.47 -40.91 L 80.47 -33.9 L 93.33 -33.9 L 93.33 0 Z M 164.63 -29.22 L 171.64 -29.22 C 171.64 -37.99 167.26 -41.49 155.34 -41.49 C 141.14 -41.49 137.63 -36.53 137.63 -28.29 C 137.63 -23.03 141.19 -17.59 148.73 -17.24 L 161.53 -16.71 C 165.21 -16.54 165.97 -15.72 165.97 -12.62 C 165.97 -7.83 164.57 -6.43 155.28 -6.43 C 145.69 -6.43 144.64 -7.36 144.64 -12.62 L 137.63 -12.62 C 137.63 -3.51 141.37 0.58 155.28 0.58 C 168.78 0.58 172.99 -3.86 172.99 -12.62 C 172.99 -19.87 168.84 -23.43 161.88 -23.73 L 149.08 -24.25 C 145.99 -24.37 144.64 -26.18 144.64 -28.29 C 144.64 -33.14 145.93 -34.48 155.34 -34.48 C 163.52 -34.48 164.63 -33.66 164.63 -29.22 Z M 181.29 0 L 211.67 0 L 211.67 -7.01 L 188.3 -7.01 L 188.3 -16.95 L 205.83 -16.95 L 205.83 -23.96 L 188.3 -23.96 L 188.3 -33.9 L 211.67 -33.9 L 211.67 -40.91 L 181.29 -40.91 Z M 257.78 -6.31 L 251.94 -10.17 C 250.3 -7.66 246.91 -6.43 240.49 -6.43 C 229.79 -6.43 226.99 -9.29 226.99 -20.45 C 226.99 -31.68 229.85 -34.48 240.49 -34.48 C 245.86 -34.48 249.08 -33.66 250.95 -31.97 L 255.62 -37.11 C 252.17 -40.32 247.15 -41.49 240.49 -41.49 C 225.99 -41.49 219.97 -35.71 219.97 -20.45 C 219.97 -5.44 225.82 0.58 240.49 0.58 C 248.61 0.58 254.45 -1.23 257.78 -6.31 Z M 294.43 -40.91 L 294.43 -17.53 C 294.43 -8.65 292.15 -6.43 283.73 -6.43 C 275.26 -6.43 273.1 -8.77 273.1 -17.53 L 273.1 -40.91 L 266.08 -40.91 L 266.08 -17.53 C 266.08 -5.03 271.05 0.58 283.73 0.58 C 296.01 0.58 301.44 -4.62 301.44 -17.53 L 301.44 -40.91 Z M 316.75 0 L 316.75 -14.03 L 327.04 -14.03 L 334.93 0 L 342.99 0 L 334.69 -14.79 C 339.78 -16.36 342.53 -20.57 342.53 -27.47 C 342.53 -36.18 338.2 -40.91 329.08 -40.91 L 309.74 -40.91 L 309.74 0 Z M 316.75 -21.04 L 316.75 -33.9 L 329.08 -33.9 C 334.11 -33.9 335.51 -32.43 335.51 -27.47 C 335.51 -22.44 334.05 -21.04 329.08 -21.04 Z M 351.29 0 L 381.68 0 L 381.68 -7.01 L 358.3 -7.01 L 358.3 -16.95 L 375.84 -16.95 L 375.84 -23.96 L 358.3 -23.96 L 358.3 -33.9 L 381.68 -33.9 L 381.68 -40.91 L 351.29 -40.91 Z" stroke-linecap="round" />
</g>
</g>
</g>
<g transform="matrix(1 0 0 1 325 445.8563128142638)" id="tagline-c8649942-efd2-444b-9595-997e25c53bb8-logo"  >
<g style=""  paint-order="stroke"   >
		<g transform="matrix(1 0 0 1 0 0)" id="tagline-c8649942-efd2-444b-9595-997e25c53bb8-logo-path-0"  >
<path style="stroke: none; stroke-width: 0; stroke-dasharray: none; stroke-linecap: butt; stroke-dashoffset: 0; stroke-linejoin: miter; stroke-miterlimit: 4; fill: rgb(235,206,144); fill-rule: nonzero; opacity: 1;"  paint-order="stroke"  transform=" translate(0, 0)" d="" stroke-linecap="round" />
</g>
</g>
</g>
</svg>